<?xml version="1.0" encoding="utf-8"?>
<svg viewBox="65.1944 111.3036 450.5204 87.9623" width="450.52" height="87.962" xmlns="http://www.w3.org/2000/svg">
  <defs>
    <linearGradient gradientUnits="userSpaceOnUse" x1="413.025" y1="403.349" x2="413.025" y2="707.298" id="gradient-4" gradientTransform="matrix(-0.102006, 0.157076, -0.157076, -0.102006, 230.338889, 136.794429)">
      <stop offset="0" style="stop-color: rgb(107, 216, 255);"/>
      <stop offset="1" style="stop-color: rgb(156, 0, 255);"/>
    </linearGradient>
    <linearGradient gradientUnits="userSpaceOnUse" x1="413.025" y1="403.349" x2="413.025" y2="707.298" id="gradient-5" gradientTransform="matrix(-0.092106, -0.153289, 0.153289, -0.092106, 22.758772, 308.205699)">
      <stop offset="0" style="stop-color: rgb(107, 216, 255);"/>
      <stop offset="1" style="stop-color: rgb(156, 0, 255);"/>
    </linearGradient>
    <linearGradient gradientUnits="userSpaceOnUse" x1="413.025" y1="403.349" x2="413.025" y2="707.298" id="gradient-6" gradientTransform="matrix(0.183083, 0, 0, 0.183083, 57.687797, 70.689107)">
      <stop offset="0" style="stop-color: rgb(37, 183, 236);"/>
      <stop offset="1" style="stop-color: rgb(156, 0, 255);"/>
    </linearGradient>
  </defs>
  <path d="M 83.608 119.737 C 84.368 118.612 85.125 118.049 85.885 118.049 C 86.644 118.049 87.402 118.612 88.159 119.737 L 94.633 129.353 L 101.111 138.968 C 101.868 140.092 102.057 140.938 101.678 141.502 C 101.298 142.062 100.35 142.345 98.835 142.345 L 84.908 132.555 L 72.935 142.345 C 71.418 142.345 70.472 142.062 70.092 141.502 C 69.709 140.938 69.902 140.092 70.66 138.968 L 77.134 129.353 L 83.608 119.737 Z" style="stroke-width: 0px; stroke: rgb(0, 0, 0); fill: url('#gradient-4'); transform-origin: 85.8841px 130.197px;" transform="matrix(0.838671028614, -0.544638991356, 0.544638991356, 0.838671028614, 0.000003618227, 0.000006809521)"/>
  <path d="M 82.875 170.158 C 83.635 169.034 84.393 168.471 85.151 168.471 C 85.91 168.471 86.667 169.034 87.427 170.158 L 93.902 179.774 L 100.377 189.391 C 101.135 190.517 101.325 191.36 100.947 191.924 C 100.566 192.486 99.618 192.769 98.101 192.769 L 84.984 181.568 L 72.202 192.769 C 70.684 192.769 69.738 192.486 69.358 191.924 C 68.979 191.36 69.169 190.517 69.928 189.391 L 76.401 179.774 L 82.875 170.158 Z" style="stroke-width: 0px; stroke: rgb(0, 0, 0); fill: url('#gradient-5'); transform-origin: 85.1522px 180.62px;" transform="matrix(-0.857167124748, -0.515038907528, 0.515038907528, -0.857167124748, -0.000006220341, -0.000001610534)"/>
  <path d="M 131.031 145.716 C 131.79 144.591 132.549 144.027 133.307 144.027 C 134.066 144.027 134.824 144.591 135.581 145.716 L 142.055 155.33 L 148.53 164.945 C 149.29 166.072 149.479 166.915 149.1 167.48 C 148.721 168.042 147.771 168.322 146.257 168.322 L 132.349 157.221 L 120.357 168.322 C 118.84 168.322 117.893 168.042 117.512 167.48 C 117.132 166.915 117.324 166.072 118.082 164.945 L 124.556 155.33 L 131.031 145.716 Z" style="stroke-width: 0px; stroke: rgb(0, 0, 0); fill: url('#gradient-6'); transform-origin: 133.306px 156.175px;" transform="matrix(0, 1, -1, 0, 0, 0.000001907349)"/>
  <path d="M 103.252 145.682 C 105.015 142.294 106.779 142.294 108.542 145.682 L 116.478 160.931 C 118.241 164.32 117.36 166.014 113.833 166.014 L 97.961 166.014 C 94.434 166.014 93.553 164.32 95.316 160.931 L 103.252 145.682 Z" style="stroke: rgb(0, 0, 0); stroke-width: 0px; fill: rgb(255, 255, 255); transform-origin: 105.897px 154.578px;" transform="matrix(0, 1, -1, 0, 0, -0.000007629395)"/>
  <path d="M 170.23 172.61 Q 168.96 170.01 167.6 167 Q 166.25 163.99 164.98 160.6 Q 163.7 157.21 162.45 153.51 Q 161.2 149.81 160.03 145.89 L 167.12 145.89 Q 167.83 148.74 168.83 152.16 Q 169.82 155.58 170.97 158.87 Q 172.12 162.16 173.14 164.71 Q 173.9 162.82 174.74 160.45 Q 175.59 158.08 176.4 155.55 Q 177.22 153.03 177.93 150.53 Q 178.65 148.03 179.21 145.89 L 186.04 145.89 Q 184.92 149.81 183.67 153.51 Q 182.42 157.21 181.12 160.6 Q 179.82 163.99 178.52 167 Q 177.22 170.01 175.89 172.61 Z M 190.41 172.61 L 190.41 145.89 L 197.09 145.89 L 197.09 172.61 Z M 193.78 141.65 Q 192.09 141.65 190.89 140.56 Q 189.7 139.46 189.7 137.57 Q 189.7 135.69 190.89 134.59 Q 192.09 133.49 193.78 133.49 Q 195.46 133.49 196.66 134.59 Q 197.86 135.69 197.86 137.57 Q 197.86 139.46 196.66 140.56 Q 195.46 141.65 193.78 141.65 Z M 217.03 173.27 Q 212.69 173.27 209.63 171.59 Q 206.57 169.91 204.91 166.77 Q 203.26 163.63 203.26 159.35 Q 203.26 155.07 204.68 151.9 Q 206.11 148.74 208.79 147.03 Q 211.47 145.33 215.24 145.33 Q 217.03 145.33 218.43 145.73 Q 219.83 146.14 221 146.7 L 221 134.11 L 227.69 133.03 L 227.69 171.74 Q 226.46 172.15 224.68 172.51 Q 222.89 172.87 220.93 173.07 Q 218.96 173.27 217.03 173.27 Z M 217.08 167.56 Q 218.4 167.56 219.4 167.43 Q 220.39 167.31 221 167.2 L 221 152.36 Q 220.29 151.85 218.96 151.42 Q 217.64 150.99 216.21 150.99 Q 214.63 150.99 213.48 151.55 Q 212.33 152.11 211.57 153.15 Q 210.8 154.2 210.45 155.68 Q 210.09 157.16 210.09 159.1 Q 210.09 161.7 210.91 163.58 Q 211.72 165.47 213.3 166.52 Q 214.88 167.56 217.08 167.56 Z M 247.73 173.27 Q 242.94 173.27 239.85 171.46 Q 236.76 169.65 235.29 166.49 Q 233.81 163.33 233.81 159.4 Q 233.81 154.66 235.62 151.52 Q 237.43 148.39 240.31 146.78 Q 243.19 145.17 246.4 145.17 Q 250.08 145.17 252.75 146.7 Q 255.43 148.23 256.88 151.24 Q 258.34 154.25 258.34 158.79 Q 258.34 159.35 258.29 160.06 Q 258.24 160.78 258.18 161.34 L 240.69 161.34 Q 240.9 164.25 242.91 165.88 Q 244.92 167.51 248.55 167.51 Q 250.79 167.51 252.7 167.1 Q 254.61 166.69 255.74 166.18 L 256.71 171.64 Q 255.58 172.2 253.06 172.74 Q 250.53 173.27 247.73 173.27 Z M 240.69 156.65 L 251.86 156.65 Q 251.81 155.07 251.22 153.71 Q 250.64 152.36 249.49 151.55 Q 248.34 150.73 246.45 150.73 Q 244.62 150.73 243.42 151.57 Q 242.22 152.41 241.56 153.77 Q 240.9 155.12 240.69 156.65 Z M 276.12 173.32 Q 272.3 173.32 269.37 171.54 Q 266.43 169.75 264.8 166.59 Q 263.17 163.43 263.17 159.2 Q 263.17 154.96 264.84 151.83 Q 266.5 148.7 269.45 146.93 Q 272.4 145.17 276.13 145.17 Q 279.92 145.17 282.84 146.93 Q 285.76 148.69 287.39 151.83 Q 289.03 154.96 289.03 159.2 Q 289.03 163.43 287.42 166.59 Q 285.81 169.75 282.93 171.54 Q 280.05 173.32 276.12 173.32 Z M 276.1 167.56 Q 278.06 167.56 279.42 166.54 Q 280.77 165.51 281.51 163.63 Q 282.24 161.74 282.24 159.2 Q 282.24 156.65 281.51 154.8 Q 280.77 152.95 279.42 151.94 Q 278.06 150.94 276.1 150.94 Q 274.19 150.94 272.81 151.96 Q 271.43 152.98 270.72 154.81 Q 270 156.65 270 159.2 Q 270 161.75 270.72 163.61 Q 271.43 165.47 272.81 166.52 Q 274.19 167.56 276.1 167.56 Z M 295.2 172.61 L 295.2 134.11 L 301.88 133.03 L 301.88 146.14 Q 302.85 145.78 304.15 145.53 Q 305.44 145.27 306.68 145.27 Q 311.01 145.27 313.42 146.82 Q 315.82 148.37 316.81 151.14 Q 317.79 153.9 317.79 157.57 L 317.79 172.61 L 311.16 172.61 L 311.16 158.48 Q 311.16 155.78 310.7 154.13 Q 310.23 152.48 309.12 151.73 Q 308.01 150.99 306 150.99 Q 305.25 150.99 304.46 151.11 Q 303.67 151.24 303 151.39 Q 302.34 151.55 301.88 151.69 L 301.88 172.61 Z M 337.63 173.27 Q 332.84 173.27 329.75 171.46 Q 326.66 169.65 325.19 166.49 Q 323.71 163.33 323.71 159.4 Q 323.71 154.66 325.52 151.52 Q 327.33 148.39 330.21 146.78 Q 333.09 145.17 336.3 145.17 Q 339.98 145.17 342.65 146.7 Q 345.33 148.23 346.78 151.24 Q 348.24 154.25 348.24 158.79 Q 348.24 159.35 348.19 160.06 Q 348.14 160.78 348.08 161.34 L 330.59 161.34 Q 330.8 164.25 332.81 165.88 Q 334.82 167.51 338.45 167.51 Q 340.69 167.51 342.6 167.1 Q 344.51 166.69 345.64 166.18 L 346.61 171.64 Q 345.48 172.2 342.96 172.74 Q 340.43 173.27 337.63 173.27 Z M 330.59 156.65 L 341.76 156.65 Q 341.71 155.07 341.12 153.71 Q 340.54 152.36 339.39 151.55 Q 338.24 150.73 336.35 150.73 Q 334.52 150.73 333.32 151.57 Q 332.12 152.41 331.46 153.77 Q 330.8 155.12 330.59 156.65 Z M 363.73 173.17 Q 360.41 173.17 357.89 172.33 Q 355.36 171.49 353.99 169.58 Q 352.61 167.66 352.61 164.45 Q 352.61 161.39 354.17 159.55 Q 355.72 157.72 358.3 156.93 Q 360.87 156.14 363.88 156.14 Q 365.31 156.14 366.58 156.29 Q 367.86 156.44 368.47 156.65 L 368.47 155.73 Q 368.47 154.3 367.99 153.2 Q 367.5 152.11 366.3 151.45 Q 365.11 150.78 363.01 150.78 Q 360.82 150.78 359.04 151.09 Q 357.25 151.39 356.03 151.85 L 355.21 146.45 Q 356.44 146.04 358.76 145.61 Q 361.08 145.17 363.73 145.17 Q 367.96 145.17 370.41 146.5 Q 372.86 147.82 373.88 150.25 Q 374.9 152.67 374.9 155.88 L 374.9 171.9 Q 373.42 172.2 370.54 172.69 Q 367.66 173.17 363.73 173.17 Z M 364.24 167.97 Q 365.56 167.97 366.66 167.89 Q 367.76 167.82 368.47 167.66 L 368.47 161.14 Q 368.01 161.03 367.02 160.88 Q 366.02 160.73 364.95 160.73 Q 363.47 160.73 362.17 161.01 Q 360.87 161.29 360.06 162.05 Q 359.24 162.82 359.24 164.3 Q 359.24 166.34 360.59 167.15 Q 361.94 167.97 364.24 167.97 Z M 394.53 173.27 Q 390.19 173.27 387.13 171.59 Q 384.07 169.91 382.42 166.77 Q 380.76 163.63 380.76 159.35 Q 380.76 155.07 382.19 151.9 Q 383.62 148.74 386.29 147.03 Q 388.97 145.33 392.74 145.33 Q 394.53 145.33 395.93 145.73 Q 397.33 146.14 398.51 146.7 L 398.51 134.11 L 405.19 133.03 L 405.19 171.74 Q 403.96 172.15 402.18 172.51 Q 400.39 172.87 398.43 173.07 Q 396.47 173.27 394.53 173.27 Z M 394.58 167.56 Q 395.91 167.56 396.9 167.43 Q 397.9 167.31 398.51 167.2 L 398.51 152.36 Q 397.79 151.85 396.47 151.42 Q 395.14 150.99 393.71 150.99 Q 392.13 150.99 390.99 151.55 Q 389.84 152.11 389.07 153.15 Q 388.31 154.2 387.95 155.68 Q 387.59 157.16 387.59 159.1 Q 387.59 161.7 388.41 163.58 Q 389.23 165.47 390.81 166.52 Q 392.39 167.56 394.58 167.56 Z" style="fill: rgb(255, 255, 255);"/>
  <path d="M 423.35 173.27 Q 421.41 173.27 419.42 173.07 Q 417.43 172.87 415.7 172.51 Q 413.96 172.15 412.64 171.74 L 412.64 134.11 L 419.32 133.03 L 419.32 146.7 Q 420.49 146.14 421.99 145.73 Q 423.5 145.33 425.28 145.33 Q 429.11 145.33 431.74 147.06 Q 434.36 148.79 435.71 151.93 Q 437.06 155.07 437.06 159.25 Q 437.06 163.53 435.43 166.67 Q 433.8 169.81 430.72 171.54 Q 427.63 173.27 423.35 173.27 Z M 423.29 167.56 Q 425.54 167.56 427.07 166.52 Q 428.6 165.47 429.41 163.58 Q 430.23 161.7 430.23 159.1 Q 430.23 157.16 429.87 155.68 Q 429.52 154.2 428.75 153.15 Q 427.99 152.11 426.84 151.55 Q 425.69 150.99 424.11 150.99 Q 422.68 150.99 421.38 151.42 Q 420.08 151.85 419.32 152.36 L 419.32 167.2 Q 419.93 167.31 420.95 167.43 Q 421.97 167.56 423.29 167.56 Z M 453.01 173.12 Q 449.14 173.02 446.97 172 Q 444.8 170.98 443.99 169.04 Q 443.17 167.1 443.17 164.35 L 443.17 134.11 L 449.85 133.03 L 449.85 163.12 Q 449.85 165.27 450.62 166.31 Q 451.38 167.36 453.98 167.61 Z M 470.25 173.32 Q 466.43 173.32 463.5 171.54 Q 460.56 169.75 458.93 166.59 Q 457.3 163.43 457.3 159.2 Q 457.3 154.96 458.96 151.83 Q 460.63 148.7 463.58 146.93 Q 466.53 145.17 470.26 145.17 Q 474.05 145.17 476.97 146.93 Q 479.89 148.69 481.52 151.83 Q 483.16 154.96 483.16 159.2 Q 483.16 163.43 481.55 166.59 Q 479.94 169.75 477.06 171.54 Q 474.18 173.32 470.25 173.32 Z M 470.23 167.56 Q 472.19 167.56 473.55 166.54 Q 474.9 165.51 475.64 163.63 Q 476.37 161.74 476.37 159.2 Q 476.37 156.65 475.64 154.8 Q 474.9 152.95 473.55 151.94 Q 472.19 150.94 470.23 150.94 Q 468.31 150.94 466.94 151.96 Q 465.56 152.98 464.85 154.81 Q 464.13 156.65 464.13 159.2 Q 464.13 161.75 464.85 163.61 Q 465.56 165.47 466.94 166.52 Q 468.31 167.56 470.23 167.56 Z M 498.55 182.2 Q 496.1 182.2 493.7 181.76 Q 491.3 181.33 489.37 180.67 L 490.54 175.06 Q 492.22 175.72 494.21 176.13 Q 496.2 176.54 498.65 176.54 Q 501.05 176.54 502.5 175.87 Q 503.95 175.21 504.62 173.91 Q 505.28 172.61 505.28 170.83 L 505.28 169.65 Q 504.16 170.21 502.75 170.6 Q 501.35 170.98 499.52 170.98 Q 496 170.98 493.4 169.55 Q 490.79 168.12 489.39 165.32 Q 487.99 162.51 487.99 158.43 Q 487.99 154.51 489.6 151.55 Q 491.2 148.59 494.21 146.93 Q 497.22 145.27 501.4 145.27 Q 504.31 145.27 507.17 145.76 Q 510.02 146.24 511.91 146.8 L 511.91 169.7 Q 511.91 176.13 508.62 179.16 Q 505.33 182.2 498.55 182.2 Z M 500.64 165.57 Q 502.01 165.57 503.24 165.19 Q 504.46 164.81 505.23 164.3 L 505.23 151.09 Q 504.62 150.94 503.72 150.83 Q 502.83 150.73 501.45 150.73 Q 499.26 150.73 497.78 151.73 Q 496.3 152.72 495.56 154.45 Q 494.82 156.19 494.82 158.43 Q 494.82 160.27 495.23 161.62 Q 495.64 162.97 496.4 163.84 Q 497.17 164.71 498.24 165.14 Q 499.31 165.57 500.64 165.57 Z" style="fill: rgb(156, 0, 255); fill-rule: evenodd;"/>
</svg>