<svg xmlns="http://www.w3.org/2000/svg" version="1.1" xmlns:xlink="http://www.w3.org/1999/xlink" xmlns:svgjs="http://svgjs.dev/svgjs" width="972" height="547" preserveAspectRatio="none" viewBox="0 0 972 547"><g mask="url(&quot;#SvgjsMask1035&quot;)" fill="none"><rect width="972" height="547" x="0" y="0" fill="rgba(156, 0, 255, 1)"></rect><path d="M0,356.132C67.324,353.83,131.969,329.818,186.929,290.867C240.305,253.039,267.42,192.69,305.591,139.559C354.092,72.049,436.421,19.493,441.5,-63.478C446.685,-148.178,383.289,-220.046,331.729,-287.445C277.377,-358.494,222.151,-439.104,135.926,-462.923C50.021,-486.654,-38.41,-445.704,-121.134,-412.545C-197.336,-382,-270.099,-342.635,-322.279,-279.256C-373.662,-216.845,-416.072,-139.978,-412.012,-59.238C-408.153,17.5,-340.686,71.624,-301.318,137.607C-266.937,195.232,-249.647,264.54,-195.327,303.935C-139.642,344.319,-68.747,358.482,0,356.132" fill="#9300f0"></path><path d="M972 976.019C1053.327 970.626 1136.035 952.149 1199.534 901.05 1260.0720000000001 852.3330000000001 1284.658 775.018 1312.1100000000001 702.323 1337.876 634.092 1371.729 562.82 1353.974 492.08 1336.693 423.228 1271.719 380.592 1219.335 332.683 1172.679 290.013 1121.247 258.284 1065.574 228.317 995.348 190.51600000000002 928.278 115.30099999999999 850.828 134.327 773.929 153.21800000000002 753.674 253.298 706.125 316.618 662.4970000000001 374.716 586.46 418.49199999999996 582.9449999999999 491.062 579.433 563.57 666.5799999999999 607.238 688.702 676.3779999999999 715.518 760.187 663.7570000000001 868.626 724.211 932.567 783.012 994.761 886.598 981.682 972 976.019" fill="#a20fff"></path></g><defs><mask id="SvgjsMask1035"><rect width="972" height="547" fill="#ffffff"></rect></mask></defs></svg>