<?xml version="1.0" encoding="utf-8"?>
<svg viewBox="56.598 111.479 374.957 87.962" xmlns="http://www.w3.org/2000/svg">
  <defs>
    <linearGradient gradientUnits="userSpaceOnUse" x1="413.025" y1="403.349" x2="413.025" y2="707.298" id="gradient-4" gradientTransform="matrix(-0.115147, 0.17731, -0.17731, -0.115147, 241.482025, 137.906887)">
      <stop offset="0" style="stop-color: rgb(89, 176, 207);">
        <animate begin="2s" attributeName="stop-color" values="rgb(89, 176, 207); rgb(127, 48, 197); rgb(89, 176, 207)" dur="30s" repeatCount="indefinite"></animate>
      </stop>
      <stop offset="1" style="stop-color: rgb(127, 48, 197);">
        <animate begin="10s" attributeName="stop-color" values="rgb(127, 48, 197); rgb(89, 176, 207); rgb(127, 48, 197)" dur="30s" repeatCount="indefinite"></animate>
      </stop>
    </linearGradient>
    <linearGradient gradientUnits="userSpaceOnUse" x1="413.025" y1="403.349" x2="413.025" y2="707.298" id="gradient-5" gradientTransform="matrix(-0.11018, -0.18337, 0.18337, -0.11018, -0.534977, 334.121504)">
      <stop offset="0" style="stop-color: rgb(89, 176, 207);">
        <animate begin="6s" attributeName="stop-color" values="rgb(89, 176, 207); rgb(127, 48, 197); rgb(89, 176, 207)" dur="30s" repeatCount="indefinite"></animate>
      </stop>
      <stop offset="1" style="stop-color: rgb(127, 48, 197);">
        <animate begin="2s" attributeName="stop-color" values="rgb(127, 48, 197); rgb(89, 176, 207); rgb(127, 48, 197)" dur="30s" repeatCount="indefinite"></animate>
      </stop>
    </linearGradient>
    <linearGradient gradientUnits="userSpaceOnUse" x1="413.025" y1="403.349" x2="413.025" y2="707.298" id="gradient-6" gradientTransform="matrix(0.212406, 0, 0, 0.212406, 36.980963, 59.036617)">
      <stop offset="0" style="stop-color: rgb(89, 176, 207);">
        <animate begin="10s" attributeName="stop-color" values="rgb(89, 176, 207); rgb(127, 48, 197); rgb(89, 176, 207)" dur="30s" repeatCount="indefinite"></animate>
      </stop>
      <stop offset="1" style="stop-color: rgb(127, 48, 197);">
        <animate begin="6s" attributeName="stop-color" values="rgb(127, 48, 197); rgb(89, 176, 207); rgb(127, 48, 197)" dur="30s" repeatCount="indefinite"></animate>
      </stop>
    </linearGradient>
  </defs>
  <path d="M 173.19 169.183 L 163.678 140.183 L 173.654 140.183 L 176.786 152.827 Q 177.83 157.177 178.874 161.875 L 179.106 161.875 Q 180.15 157.177 181.194 152.827 L 184.326 140.183 L 193.838 140.183 L 184.674 169.183 Z" style="fill: rgb(0, 0, 0); white-space: pre;"/>
  <path d="M 197.88 169.183 L 197.88 140.183 L 207.856 140.183 L 207.856 169.183 Z M 202.868 136.587 Q 200.432 136.587 198.924 135.224 Q 197.416 133.861 197.416 131.599 Q 197.416 129.337 198.924 127.974 Q 200.432 126.611 202.868 126.611 Q 205.304 126.611 206.812 127.974 Q 208.32 129.337 208.32 131.599 Q 208.32 133.861 206.812 135.224 Q 205.304 136.587 202.868 136.587 Z" style="fill: rgb(0, 0, 0); white-space: pre;"/>
  <path d="M 225.141 169.879 Q 219.747 169.879 216.528 165.79 Q 213.309 161.701 213.309 154.683 Q 213.309 149.927 215.02 146.534 Q 216.731 143.141 219.457 141.314 Q 222.183 139.487 225.141 139.487 Q 227.519 139.487 229.056 140.27 Q 230.593 141.053 231.869 142.387 L 231.521 138.211 L 231.521 128.815 L 241.497 128.815 L 241.497 169.183 L 233.377 169.183 L 232.681 166.515 L 232.449 166.515 Q 230.999 167.965 229.027 168.922 Q 227.055 169.879 225.141 169.879 Z M 227.809 161.759 Q 228.969 161.759 229.868 161.324 Q 230.767 160.889 231.521 159.671 L 231.521 148.999 Q 230.651 148.187 229.607 147.897 Q 228.563 147.607 227.577 147.607 Q 226.011 147.607 224.764 149.173 Q 223.517 150.739 223.517 154.567 Q 223.517 158.453 224.677 160.106 Q 225.837 161.759 227.809 161.759 Z" style="fill: rgb(0, 0, 0); white-space: pre;"/>
  <path d="M 261.67 169.879 Q 257.436 169.879 254.043 168.081 Q 250.65 166.283 248.678 162.89 Q 246.706 159.497 246.706 154.683 Q 246.706 149.985 248.707 146.592 Q 250.708 143.199 253.898 141.343 Q 257.088 139.487 260.626 139.487 Q 264.918 139.487 267.731 141.372 Q 270.544 143.257 271.907 146.447 Q 273.27 149.637 273.27 153.523 Q 273.27 154.799 273.125 155.988 Q 272.98 157.177 272.864 157.699 L 256.334 157.699 Q 257.03 160.309 258.828 161.324 Q 260.626 162.339 263.062 162.339 Q 265.846 162.339 268.978 160.599 L 272.226 166.515 Q 269.906 168.139 267.006 169.009 Q 264.106 169.879 261.67 169.879 Z M 256.218 151.203 L 264.802 151.203 Q 264.802 149.521 263.961 148.274 Q 263.12 147.027 260.858 147.027 Q 259.234 147.027 257.958 148.013 Q 256.682 148.999 256.218 151.203 Z" style="fill: rgb(0, 0, 0); white-space: pre;"/>
  <path d="M 291.593 169.879 Q 287.881 169.879 284.604 168.081 Q 281.327 166.283 279.268 162.89 Q 277.209 159.497 277.209 154.683 Q 277.209 149.869 279.268 146.476 Q 281.327 143.083 284.604 141.285 Q 287.881 139.487 291.593 139.487 Q 295.305 139.487 298.582 141.285 Q 301.859 143.083 303.918 146.476 Q 305.977 149.869 305.977 154.683 Q 305.977 159.497 303.918 162.89 Q 301.859 166.283 298.582 168.081 Q 295.305 169.879 291.593 169.879 Z M 291.593 161.875 Q 293.855 161.875 294.812 159.932 Q 295.769 157.989 295.769 154.683 Q 295.769 151.377 294.812 149.434 Q 293.855 147.491 291.593 147.491 Q 289.331 147.491 288.374 149.434 Q 287.417 151.377 287.417 154.683 Q 287.417 157.989 288.374 159.932 Q 289.331 161.875 291.593 161.875 Z" style="fill: rgb(0, 0, 0); white-space: pre;"/>
  <path d="M 312.09 169.183 L 312.09 128.235 L 318.76 128.235 L 318.76 138.791 L 318.528 144.301 Q 320.326 142.619 322.53 141.314 Q 324.734 140.009 327.634 140.009 Q 332.216 140.009 334.304 142.967 Q 336.392 145.925 336.392 151.319 L 336.392 169.183 L 329.722 169.183 L 329.722 152.189 Q 329.722 148.651 328.678 147.201 Q 327.634 145.751 325.256 145.751 Q 323.4 145.751 321.979 146.65 Q 320.558 147.549 318.76 149.289 L 318.76 169.183 Z" style="fill: rgb(0, 0, 0); white-space: pre;"/>
  <path d="M 356.617 169.879 Q 352.673 169.879 349.483 168.11 Q 346.293 166.341 344.437 163.006 Q 342.581 159.671 342.581 154.973 Q 342.581 150.333 344.466 146.969 Q 346.351 143.605 349.367 141.807 Q 352.383 140.009 355.689 140.009 Q 359.575 140.009 362.185 141.72 Q 364.795 143.431 366.129 146.476 Q 367.463 149.521 367.463 153.523 Q 367.463 155.611 367.173 156.771 L 349.077 156.771 Q 349.541 160.541 351.803 162.629 Q 354.065 164.717 357.487 164.717 Q 359.343 164.717 360.938 164.166 Q 362.533 163.615 364.099 162.629 L 366.361 166.805 Q 364.331 168.139 361.837 169.009 Q 359.343 169.879 356.617 169.879 Z M 349.019 152.247 L 361.663 152.247 Q 361.663 148.941 360.213 147.056 Q 358.763 145.171 355.863 145.171 Q 353.369 145.171 351.426 146.998 Q 349.483 148.825 349.019 152.247 Z" style="fill: rgb(0, 0, 0); white-space: pre;"/>
  <path d="M 380.045 169.879 Q 376.333 169.879 373.984 167.559 Q 371.635 165.239 371.635 161.527 Q 371.635 156.945 375.637 154.422 Q 379.639 151.899 388.397 150.971 Q 388.339 148.709 387.208 147.056 Q 386.077 145.403 383.177 145.403 Q 381.089 145.403 379.088 146.215 Q 377.087 147.027 375.173 148.187 L 372.737 143.721 Q 375.115 142.213 378.102 141.111 Q 381.089 140.009 384.453 140.009 Q 389.789 140.009 392.428 143.17 Q 395.067 146.331 395.067 152.305 L 395.067 169.183 L 389.557 169.183 L 389.093 166.051 L 388.861 166.051 Q 386.947 167.675 384.772 168.777 Q 382.597 169.879 380.045 169.879 Z M 382.191 164.659 Q 383.931 164.659 385.352 163.818 Q 386.773 162.977 388.397 161.527 L 388.397 155.147 Q 382.597 155.901 380.335 157.38 Q 378.073 158.859 378.073 161.005 Q 378.073 162.919 379.233 163.789 Q 380.393 164.659 382.191 164.659 Z" style="fill: rgb(0, 0, 0); white-space: pre;"/>
  <path d="M 413.044 169.879 Q 407.708 169.879 404.518 165.935 Q 401.328 161.991 401.328 154.973 Q 401.328 150.333 403.039 146.969 Q 404.75 143.605 407.534 141.807 Q 410.318 140.009 413.392 140.009 Q 415.828 140.009 417.539 140.85 Q 419.25 141.691 420.874 143.141 L 420.642 138.559 L 420.642 128.235 L 427.312 128.235 L 427.312 169.183 L 421.802 169.183 L 421.338 166.109 L 421.106 166.109 Q 419.54 167.675 417.452 168.777 Q 415.364 169.879 413.044 169.879 Z M 414.668 164.369 Q 417.858 164.369 420.642 161.179 L 420.642 147.897 Q 419.192 146.563 417.742 146.041 Q 416.292 145.519 414.842 145.519 Q 412.116 145.519 410.173 147.984 Q 408.23 150.449 408.23 154.915 Q 408.23 159.497 409.912 161.933 Q 411.594 164.369 414.668 164.369 Z" style="fill: rgb(0, 0, 0); white-space: pre;"/>
  <path d="M 75.012 119.912 C 75.772 118.787 76.529 118.224 77.289 118.224 C 78.048 118.224 78.806 118.787 79.563 119.912 L 86.037 129.528 L 92.515 139.143 C 93.272 140.267 93.461 141.113 93.082 141.677 C 92.702 142.237 91.754 142.52 90.239 142.52 L 76.312 132.73 L 64.339 142.52 C 62.822 142.52 61.876 142.237 61.496 141.677 C 61.113 141.113 61.306 140.267 62.064 139.143 L 68.538 129.528 L 75.012 119.912 Z" style="stroke-width: 0px; stroke: rgb(0, 0, 0); fill: url(#gradient-4);" transform="matrix(0.838671, -0.544639, 0.544639, 0.838671, -58.536808, 63.12693)"/>
  <path d="M 74.279 170.333 C 75.039 169.209 75.797 168.646 76.555 168.646 C 77.314 168.646 78.071 169.209 78.831 170.333 L 85.306 179.949 L 91.781 189.566 C 92.539 190.692 92.729 191.535 92.351 192.099 C 91.97 192.661 91.022 192.944 89.505 192.944 L 76.388 181.743 L 63.606 192.944 C 62.088 192.944 61.142 192.661 60.762 192.099 C 60.383 191.535 60.573 190.692 61.332 189.566 L 67.805 179.949 L 74.279 170.333 Z" style="stroke-width: 0px; stroke: rgb(0, 0, 0); fill: url(#gradient-5);" transform="matrix(-0.857167, -0.515039, 0.515039, -0.857167, 49.061134, 375.195862)"/>
  <path d="M 122.435 145.891 C 123.194 144.766 123.953 144.202 124.711 144.202 C 125.47 144.202 126.228 144.766 126.985 145.891 L 133.459 155.505 L 139.934 165.12 C 140.694 166.247 140.883 167.09 140.504 167.655 C 140.125 168.217 139.175 168.497 137.661 168.497 L 123.753 157.396 L 111.761 168.497 C 110.244 168.497 109.297 168.217 108.916 167.655 C 108.536 167.09 108.728 166.247 109.486 165.12 L 115.96 155.505 L 122.435 145.891 Z" style="stroke-width: 0px; stroke: rgb(0, 0, 0); fill: url(#gradient-6);" transform="matrix(0, 1, -1, 0, 281.059509, 31.639492)"/>
  <path d="M 174.876 223.423 Q 177.521 218.34 180.166 223.423 L 188.102 238.672 Q 190.747 243.755 185.457 243.755 L 169.585 243.755 Q 164.295 243.755 166.94 238.672 Z" style="stroke: rgb(0, 0, 0); stroke-width: 0px; fill: rgb(0, 0, 0);" transform="matrix(0, 1, -1, 0, 329.686188, -22.745152)"/>
</svg>